<?xml version="1.0" encoding="UTF-8"?><svg id="Ebene_1" xmlns="http://www.w3.org/2000/svg" xmlns:xlink="http://www.w3.org/1999/xlink" viewBox="0 0 404.48 541.53"><defs><style>.cls-1{clip-path:url(#clippath);}.cls-2{fill:none;}.cls-2,.cls-3{stroke-width:0px;}.cls-3{fill:#d6cdbc;}</style><clipPath id="clippath"><rect class="cls-2" y="0" width="404.48" height="541.53"/></clipPath></defs><g class="cls-1"><path class="cls-3" d="m178.25.08c-34.53,52.89-71.47,103.6-90.7,163.05-1.97,10.06-3.93,24.48,4.15,31.91,2.19.87,4.37,3.28,6.78,1.53,13.32-13.77-5.25-27.98,0-44.59,7.87-47.87,41.96-84.81,65.13-126.34,4.81-8.52,10.71-16.39,16.18-24.7.22-.87-.87-1.09-1.54-.87"/><path class="cls-3" d="m178.25.08c-34.53,52.89-71.47,103.6-90.7,163.05-1.97,10.06-3.93,24.48,4.15,31.91,2.19.87,4.37,3.28,6.78,1.53,13.32-13.77-5.25-27.98,0-44.59,7.87-47.87,41.96-84.81,65.13-126.34,4.81-8.52,10.71-16.39,16.18-24.7.22-.87-.87-1.09-1.54-.87"/><path class="cls-3" d="m144.16,117.89c-12.02,18.8-29.73,34.76-37.81,55.74.43,3.28.87,7.43,4.8,8.31,18.58-2.19,15.74-23.39,22.51-35.63C157.49,96.25,186.78,47.94,214.97.52c-26.23,38.03-47.43,77.81-70.81,117.37"/><path class="cls-3" d="m144.16,117.89c-12.02,18.8-29.73,34.76-37.81,55.74.43,3.28.87,7.43,4.8,8.31,18.58-2.19,15.74-23.39,22.51-35.63C157.49,96.25,186.78,47.94,214.97.52c-26.23,38.03-47.43,77.81-70.81,117.37"/><path class="cls-3" d="m234.42,1.6c-23.16,35.42-40.65,73.01-58.79,110.6-2.19,15.52-6.12,35.2,7.43,46.12,5.69.87,8.96-3.71,10.93-7.87,5.25-9.84-4.59-16.17-5.68-24.7-8.09-43.27,21.86-74.97,38.69-109.93,3.28-4.81,6.34-9.62,9.62-14.22h-2.19Z"/><path class="cls-3" d="m234.42,1.6c-23.16,35.42-40.65,73.01-58.79,110.6-2.19,15.52-6.12,35.2,7.43,46.12,5.69.87,8.96-3.71,10.93-7.87,5.25-9.84-4.59-16.17-5.68-24.7-8.09-43.27,21.86-74.97,38.69-109.93,3.28-4.81,6.34-9.62,9.62-14.22h-2.19Z"/><path class="cls-3" d="m279.45,3.13c-14.43,24.7-27.97,49.84-42.4,74.54-10.06,19.9-43.94,33.88-35.2,60.33,7.87,3.06,13.34-4.8,17.28-10.05,6.99-12.9,8.96-27.98,15.73-40.88,16.62-27.75,29.94-56.61,46.33-84.36-.87-.43-.87.87-1.75.43"/><path class="cls-3" d="m279.45,3.13c-14.43,24.7-27.97,49.84-42.4,74.54-10.06,19.9-43.94,33.88-35.2,60.33,7.87,3.06,13.34-4.8,17.28-10.05,6.99-12.9,8.96-27.98,15.73-40.88,16.62-27.75,29.94-56.61,46.33-84.36-.87-.43-.87.87-1.75.43"/><path class="cls-3" d="m252.35,119.64c-12.46,17.48-30.6,25.36-49.4,29.73-3.5,2.85-6.34,5.25-7.43,9.62-1.1,3.93-.66,9.62,4.37,10.93,14.21,1.53,25.13-9.4,34.53-20.55,5.69-5.02,7.65-11.58,13.55-16.6,0,10.71-5.68,20.54-7.21,31.48,0,12.45-4.59,24.47-2.18,36.71,1.31,3.06,5.03,4.59,7.87,3.5,3.28-.43,4.15-4.37,4.81-6.12.87-8.52-3.5-14.86-4.16-22.73-1.96-26.01,3.06-50.27,17.71-70.16,21.86-33.01,40.22-67.54,58.8-101.86-3.06-1.53-3.06,3.29-4.81,4.82-20.55,38.03-41.97,74.75-66.45,111.25"/><path class="cls-3" d="m252.35,119.64c-12.46,17.48-30.6,25.36-49.4,29.73-3.5,2.85-6.34,5.25-7.43,9.62-1.1,3.93-.66,9.62,4.37,10.93,14.21,1.53,25.13-9.4,34.53-20.55,5.69-5.02,7.65-11.58,13.55-16.6,0,10.71-5.68,20.54-7.21,31.48,0,12.45-4.59,24.47-2.18,36.71,1.31,3.06,5.03,4.59,7.87,3.5,3.28-.43,4.15-4.37,4.81-6.12.87-8.52-3.5-14.86-4.16-22.73-1.96-26.01,3.06-50.27,17.71-70.16,21.86-33.01,40.22-67.54,58.8-101.86-3.06-1.53-3.06,3.29-4.81,4.82-20.55,38.03-41.97,74.75-66.45,111.25"/><path class="cls-3" d="m367.1,4.23c-31.91,52.68-62.73,104.26-101.2,154.1-5.69,8.09-14.21,15.95-10.06,26.89,2.41,1.74,5.68,2.62,8.53,1.53,13.76-9.18,13.33-26.89,20.98-40,27.1-47.65,56.18-94.64,82.84-142.51h-1.09Z"/><path class="cls-3" d="m367.1,4.23c-31.91,52.68-62.73,104.26-101.2,154.1-5.69,8.09-14.21,15.95-10.06,26.89,2.41,1.74,5.68,2.62,8.53,1.53,13.76-9.18,13.33-26.89,20.98-40,27.1-47.65,56.18-94.64,82.84-142.51h-1.09Z"/><path class="cls-3" d="m402.73,4.67c-34.32,62.29-72.35,121.74-115.85,180.54-10.93,7.43-26.01,7.65-33.66,19.89-.44,3.5.43,6.99,3.71,8.3,24.26-1.97,38.04-28.41,48.74-46.12,36.29-52.89,68.63-107.32,98.8-162.61h-1.75Z"/><path class="cls-3" d="m402.73,4.67c-34.32,62.29-72.35,121.74-115.85,180.54-10.93,7.43-26.01,7.65-33.66,19.89-.44,3.5.43,6.99,3.71,8.3,24.26-1.97,38.04-28.41,48.74-46.12,36.29-52.89,68.63-107.32,98.8-162.61h-1.75Z"/><path class="cls-3" d="m.56,79.63c21.41,26.23,25.78,59.46,34.97,90.71,4.58,25.57,8.52,51.14,8.96,78.25,2.62-1.31,1.31-5.9,3.28-8.31,3.28-7,4.37-14.64,9.84-20.54C51.26,167.07,32.9,118.98.56,77.67c-1.53.44.65,1.1,0,1.97"/><path class="cls-3" d="m.56,79.63c21.41,26.23,25.78,59.46,34.97,90.71,4.58,25.57,8.52,51.14,8.96,78.25,2.62-1.31,1.31-5.9,3.28-8.31,3.28-7,4.37-14.64,9.84-20.54C51.26,167.07,32.9,118.98.56,77.67c-1.53.44.65,1.1,0,1.97"/><path class="cls-3" d="m167.32,132.1c-2.63,20.98-17.04,41.09-7.86,62.95,1.53,2.84,4.81,3.06,7.21,2.19,5.03-3.06,7.65-8.09,7.87-13.77-2.84-18.15-8.3-35.4-4.59-54.43-1.75.22-1.75,1.97-2.62,3.07"/><path class="cls-3" d="m167.32,132.1c-2.63,20.98-17.04,41.09-7.86,62.95,1.53,2.84,4.81,3.06,7.21,2.19,5.03-3.06,7.65-8.09,7.87-13.77-2.84-18.15-8.3-35.4-4.59-54.43-1.75.22-1.75,1.97-2.62,3.07"/><path class="cls-3" d="m184.59,185.21c-3.71,2.4-8.52,6.12-10.06,10.92-.43,5.68.22,11.59,5.91,14.21,11.8,0,20.1-8.53,28.85-16.39,6.99-7.88,13.11-17.49,20.98-25.14-3.06,19.45-11.59,39.34-6.78,61.42.87,3.06,5.03,4.15,7.22,2.18,13.11-13.33,1.74-31.91,3.71-48.31.88-11.15,2.41-22.07,4.81-32.57-13.77,18.58-33.44,29.73-54.64,33.67"/><path class="cls-3" d="m184.59,185.21c-3.71,2.4-8.52,6.12-10.06,10.92-.43,5.68.22,11.59,5.91,14.21,11.8,0,20.1-8.53,28.85-16.39,6.99-7.88,13.11-17.49,20.98-25.14-3.06,19.45-11.59,39.34-6.78,61.42.87,3.06,5.03,4.15,7.22,2.18,13.11-13.33,1.74-31.91,3.71-48.31.88-11.15,2.41-22.07,4.81-32.57-13.77,18.58-33.44,29.73-54.64,33.67"/><path class="cls-3" d="m108.53,193.52c-2.4,3.06-3.72,6.34-3.07,10.49,2.19,3.93,7.86,3.27,12.02,2.62,15.3-6.77,22.95-22.52,30.82-36.28-1.97,17.92-13.56,35.19-8.31,54.65,1.53,3.94,5.47,7.86,9.4,9.39,6.33.66,7.43-6.56,9.39-10.49,2.4-10.28-5.67-17.49-7.21-26.67-1.97-16.17,2.62-31.04,6.34-45.68-12.24,17.48-28.85,35.63-49.4,41.97"/><path class="cls-3" d="m108.53,193.52c-2.4,3.06-3.72,6.34-3.07,10.49,2.19,3.93,7.86,3.27,12.02,2.62,15.3-6.77,22.95-22.52,30.82-36.28-1.97,17.92-13.56,35.19-8.31,54.65,1.53,3.94,5.47,7.86,9.4,9.39,6.33.66,7.43-6.56,9.39-10.49,2.4-10.28-5.67-17.49-7.21-26.67-1.97-16.17,2.62-31.04,6.34-45.68-12.24,17.48-28.85,35.63-49.4,41.97"/><path class="cls-3" d="m74.44,219.31c2.18,3.28,3.93,8.31,8.3,9.4,5.02.44,7.43-4.15,8.53-7.87-1.53-11.81-9.62-20.77-9.4-33.01,0-7.65,1.75-14.86,2.63-22.08-7.65,16.18-12.25,34.75-10.06,53.55"/><path class="cls-3" d="m74.44,219.31c2.18,3.28,3.93,8.31,8.3,9.4,5.02.44,7.43-4.15,8.53-7.87-1.53-11.81-9.62-20.77-9.4-33.01,0-7.65,1.75-14.86,2.63-22.08-7.65,16.18-12.25,34.75-10.06,53.55"/><path class="cls-3" d="m183.06,169.91c-.43,1.75.22,3.71,1.97,4.15,2.18.44,3.5-.43,4.81-1.97-.44-1.75.87-4.15-1.09-5.24-2.62-.66-5.47.43-5.69,3.06"/><path class="cls-3" d="m183.06,169.91c-.43,1.75.22,3.71,1.97,4.15,2.18.44,3.5-.43,4.81-1.97-.44-1.75.87-4.15-1.09-5.24-2.62-.66-5.47.43-5.69,3.06"/><path class="cls-3" d="m169.29,222.37c-6.12,3.28-13.34,9.4-12.46,17.27-.65,5.46,4.37,6.77,8.31,7.87,23.39-4.81,39.35-29.51,50.49-48.75.44-2.4,1.53-4.36,3.06-6.33-.22,8.08-5.68,15.3-6.77,23.61-2.62,14.42-8.09,28.19-6.34,43.49.44,1.97,1.97,3.93,3.72,4.81,3.5-.65,8.53-2.41,8.96-6.34,3.27-13.77-1.97-26.67-1.75-40.43.22-10.28,4.37-19.46,4.37-29.29-10.93,19.67-31.91,28.85-51.59,34.1"/><path class="cls-3" d="m169.29,222.37c-6.12,3.28-13.34,9.4-12.46,17.27-.65,5.46,4.37,6.77,8.31,7.87,23.39-4.81,39.35-29.51,50.49-48.75.44-2.4,1.53-4.36,3.06-6.33-.22,8.08-5.68,15.3-6.77,23.61-2.62,14.42-8.09,28.19-6.34,43.49.44,1.97,1.97,3.93,3.72,4.81,3.5-.65,8.53-2.41,8.96-6.34,3.27-13.77-1.97-26.67-1.75-40.43.22-10.28,4.37-19.46,4.37-29.29-10.93,19.67-31.91,28.85-51.59,34.1"/><path class="cls-3" d="m97.6,221.27c-3.94,3.72-5.69,8.31-5.25,13.77,2.84,3.06,7.65,2.84,11.37,1.97,11.58-6.56,19.02-18.8,26.89-28.85-1.53,12.68-12.03,23.38-20.99,33-10.27,6.56-29.73,4.59-29.51,22.08,2.19,6.11,9.18,4.15,13.77,3.71,13.12-7.22,19.89-21.43,27.76-33.67,0,13.12-10.27,32.35,4.81,41.1,3.49,1.53,7.21-.22,9.83-2.63,11.15-15.96-1.3-33.66-1.97-50.49-1.09-10.27,3.5-18.14,4.16-27.75-8.31,16.6-26.88,19.67-40.87,27.75"/><path class="cls-3" d="m97.6,221.27c-3.94,3.72-5.69,8.31-5.25,13.77,2.84,3.06,7.65,2.84,11.37,1.97,11.58-6.56,19.02-18.8,26.89-28.85-1.53,12.68-12.03,23.38-20.99,33-10.27,6.56-29.73,4.59-29.51,22.08,2.19,6.11,9.18,4.15,13.77,3.71,13.12-7.22,19.89-21.43,27.76-33.67,0,13.12-10.27,32.35,4.81,41.1,3.49,1.53,7.21-.22,9.83-2.63,11.15-15.96-1.3-33.66-1.97-50.49-1.09-10.27,3.5-18.14,4.16-27.75-8.31,16.6-26.88,19.67-40.87,27.75"/><path class="cls-3" d="m244.48,226.52c-3.93,2.63-7.22,6.55-7.43,11.15-.22,2.83,1.96,4.81,4.15,6.12,15.3-.66,23.83-16.17,34.76-26.67,5.03-6.56,10.05-13.11,13.55-20.54-9.83,17.05-27.1,27.1-45.02,29.94"/><path class="cls-3" d="m244.48,226.52c-3.93,2.63-7.22,6.55-7.43,11.15-.22,2.83,1.96,4.81,4.15,6.12,15.3-.66,23.83-16.17,34.76-26.67,5.03-6.56,10.05-13.11,13.55-20.54-9.83,17.05-27.1,27.1-45.02,29.94"/><path class="cls-3" d="m67,256.46c1.97,1.75,4.37,4.37,7.44,2.62,10.93-11.58-2.41-23.6-4.16-35.18-1.31-8.74,0-18.36,1.09-26.23-8.3,16.39-16.83,41.31-4.37,58.79"/><path class="cls-3" d="m67,256.46c1.97,1.75,4.37,4.37,7.44,2.62,10.93-11.58-2.41-23.6-4.16-35.18-1.31-8.74,0-18.36,1.09-26.23-8.3,16.39-16.83,41.31-4.37,58.79"/><path class="cls-3" d="m165.8,206.19c-.66,1.97.44,3.49,1.97,4.59,1.96.22,3.71-.87,4.15-2.62.88-3.5-4.59-6.12-6.12-1.97"/><path class="cls-3" d="m165.8,206.19c-.66,1.97.44,3.49,1.97,4.59,1.96.22,3.71-.87,4.15-2.62.88-3.5-4.59-6.12-6.12-1.97"/><path class="cls-3" d="m96.94,210.78c.66,1.75,2.84,1.31,3.71.66.88-1.75,3.07-5.03,0-6.34-3.71-.66-6.34,2.63-3.71,5.68"/><path class="cls-3" d="m96.94,210.78c.66,1.75,2.84,1.31,3.71.66.88-1.75,3.07-5.03,0-6.34-3.71-.66-6.34,2.63-3.71,5.68"/><path class="cls-3" d="m242.3,214.49c-.43,1.54.66,2.19,1.53,3.07,1.74.65,3.28-.66,3.71-1.97.66-2.63-4.15-3.94-5.24-1.1"/><path class="cls-3" d="m242.3,214.49c-.43,1.54.66,2.19,1.53,3.07,1.74.65,3.28-.66,3.71-1.97.66-2.63-4.15-3.94-5.24-1.1"/><path class="cls-3" d="m153.55,259.52c-8.52,3.28-13.77,11.36-13.55,20.55-.65,2.84,2.62,5.03,4.81,5.69,10.05,3.27,20.33-.44,26.66-8.31,10.5-11.8,15.31-25.79,24.05-38.25-2.41,18.14-12.68,37.38-7.22,56.18,1.75,1.75,4.15,2.18,6.77,1.97,14.43-17.27-1.74-40.88,5.68-60.77,1.09-3.93,2.19-8.09,3.28-12.02-13.98,15.95-29.73,32.78-50.49,34.97"/><path class="cls-3" d="m153.55,259.52c-8.52,3.28-13.77,11.36-13.55,20.55-.65,2.84,2.62,5.03,4.81,5.69,10.05,3.27,20.33-.44,26.66-8.31,10.5-11.8,15.31-25.79,24.05-38.25-2.41,18.14-12.68,37.38-7.22,56.18,1.75,1.75,4.15,2.18,6.77,1.97,14.43-17.27-1.74-40.88,5.68-60.77,1.09-3.93,2.19-8.09,3.28-12.02-13.98,15.95-29.73,32.78-50.49,34.97"/><path class="cls-3" d="m47.11,269.58c1.53,6.56,2.62,14.43,9.4,17.93,3.5.22,7.21-.66,7.87-4.37-1.31-19.45-14.64-38.04-5.25-58.14-8.09,13.11-8.96,29.29-12.02,44.58"/><path class="cls-3" d="m47.11,269.58c1.53,6.56,2.62,14.43,9.4,17.93,3.5.22,7.21-.66,7.87-4.37-1.31-19.45-14.64-38.04-5.25-58.14-8.09,13.11-8.96,29.29-12.02,44.58"/><path class="cls-3" d="m225.47,259.08c-3.06,1.1-3.5,3.94-5.25,6.35-2.18,4.59,1.31,8.08,5.25,9.4,22.29-3.72,34.31-26.88,45.24-43.5-12.89,13.55-27.76,24.26-45.24,27.75"/><path class="cls-3" d="m225.47,259.08c-3.06,1.1-3.5,3.94-5.25,6.35-2.18,4.59,1.31,8.08,5.25,9.4,22.29-3.72,34.31-26.88,45.24-43.5-12.89,13.55-27.76,24.26-45.24,27.75"/><path class="cls-3" d="m83.83,238.54c-.66,2.84,1.96,5.02,4.15,3.28.44-1.53,1.97-3.5,0-4.81-1.53.22-3.93-.66-4.15,1.53"/><path class="cls-3" d="m83.83,238.54c-.66,2.84,1.96,5.02,4.15,3.28.44-1.53,1.97-3.5,0-4.81-1.53.22-3.93-.66-4.15,1.53"/><path class="cls-3" d="m226.12,250.13c1.53,1.53,3.5,0,4.59-1.53.43-1.97-.66-3.5-1.97-4.81-5.25-1.96-2.84,4.59-2.63,6.34"/><path class="cls-3" d="m226.12,250.13c1.53,1.53,3.5,0,4.59-1.53.43-1.97-.66-3.5-1.97-4.81-5.25-1.96-2.84,4.59-2.63,6.34"/><path class="cls-3" d="m146.78,246.41c.44,1.75,1.31,3.06,2.63,4.37,1.74-.43,3.06-1.31,4.14-2.62.44-3.93-5.68-5.46-6.77-1.75"/><path class="cls-3" d="m146.78,246.41c.44,1.75,1.31,3.06,2.63,4.37,1.74-.43,3.06-1.31,4.14-2.62.44-3.93-5.68-5.46-6.77-1.75"/><path class="cls-3" d="m81.86,276.35c-4.59,2.2-10.27,3.72-12.67,8.97-1.1,3.71-.44,8.09,1.53,10.93,8.51,2.62,16.83-1.1,23.17-6.77,8.97-11.58,16.83-23.39,22.08-36.72-10.27,8.74-19.02,23.6-34.1,23.6"/><path class="cls-3" d="m81.86,276.35c-4.59,2.2-10.27,3.72-12.67,8.97-1.1,3.71-.44,8.09,1.53,10.93,8.51,2.62,16.83-1.1,23.17-6.77,8.97-11.58,16.83-23.39,22.08-36.72-10.27,8.74-19.02,23.6-34.1,23.6"/><path class="cls-3" d="m206.67,290.56c-5.24,3.72-7.43,9.19-6.33,14.65,1.31,4.15,5.68,3.06,8.3,4.81,22.08-7.65,38.25-31.26,49.4-50.93,2.62-10.05-3.72,4.16-6.34,5.68-13.55,12.03-29.07,19.45-45.02,25.79"/><path class="cls-3" d="m206.67,290.56c-5.24,3.72-7.43,9.19-6.33,14.65,1.31,4.15,5.68,3.06,8.3,4.81,22.08-7.65,38.25-31.26,49.4-50.93,2.62-10.05-3.72,4.16-6.34,5.68-13.55,12.03-29.07,19.45-45.02,25.79"/><path class="cls-3" d="m40.34,316.03c1.53,2.64,5.02,4.57,7.86,2.89,14.43-17.56-9.18-30.55-5.25-49.78.44-4.58,1.09-9.14,1.53-13.71-5.25,17.8-14.64,41.37-4.15,60.61"/><path class="cls-3" d="m40.34,316.03c1.53,2.64,5.02,4.57,7.86,2.89,14.43-17.56-9.18-30.55-5.25-49.78.44-4.58,1.09-9.14,1.53-13.71-5.25,17.8-14.64,41.37-4.15,60.61"/><path class="cls-3" d="m163.61,322.47c2.41,2.63,4.16,6.12,7.43,7.87,5.02.65,7.87-3.49,10.49-7.22,1.1-19.88-2.62-42.62,4.59-61.42-8.52,19.89-23.82,37.6-22.52,60.76"/><path class="cls-3" d="m163.61,322.47c2.41,2.63,4.16,6.12,7.43,7.87,5.02.65,7.87-3.49,10.49-7.22,1.1-19.88-2.62-42.62,4.59-61.42-8.52,19.89-23.82,37.6-22.52,60.76"/><path class="cls-3" d="m71.37,270.67c1.75,2.19,5.9,2.62,6.12-1.09,1.09-5.24-10.49-3.94-6.12,1.09"/><path class="cls-3" d="m71.37,270.67c1.75,2.19,5.9,2.62,6.12-1.09,1.09-5.24-10.49-3.94-6.12,1.09"/><path class="cls-3" d="m207.76,276.35c.65.88.44,2.63,1.96,2.63,1.76.21,3.28-.22,4.15-1.53.44-1.52-.22-2.84-1.53-3.71-1.97-.22-4.59.22-4.59,2.62"/><path class="cls-3" d="m207.76,276.35c.65.88.44,2.63,1.96,2.63,1.76.21,3.28-.22,4.15-1.53.44-1.52-.22-2.84-1.53-3.71-1.97-.22-4.59.22-4.59,2.62"/><path class="cls-3" d="m129.08,285.32c-1.1,2.4,1.53,3.93,3.05,4.15,1.53.44,2.84-.22,3.71-1.53.43-2.18-.65-4.37-2.62-5.25-1.75.44-4.37.21-4.14,2.62"/><path class="cls-3" d="m129.08,285.32c-1.1,2.4,1.53,3.93,3.05,4.15,1.53.44,2.84-.22,3.71-1.53.43-2.18-.65-4.37-2.62-5.25-1.75.44-4.37.21-4.14,2.62"/><path class="cls-3" d="m192.03,322.47c-5.25,3.94-10.27,8.75-8.52,15.3,3.93,4.81,10.05,5.47,15.73,4.16,16.61-3.93,23.61-22.29,33.66-34.09,3.28-7.22,7.44-14.22,10.93-21.42-11.8,20.76-31.26,30.16-51.8,36.06"/><path class="cls-3" d="m192.03,322.47c-5.25,3.94-10.27,8.75-8.52,15.3,3.93,4.81,10.05,5.47,15.73,4.16,16.61-3.93,23.61-22.29,33.66-34.09,3.28-7.22,7.44-14.22,10.93-21.42-11.8,20.76-31.26,30.16-51.8,36.06"/><path class="cls-3" d="m56.07,315.26c-.87,3.5-.87,7.87,2.19,10.49,5.9,3.94,12.23-.66,17.71-2.18,11.58-9.62,17.92-22.08,24.26-35.2-8.75,20.11-33.23,11.15-44.16,26.88"/><path class="cls-3" d="m56.07,315.26c-.87,3.5-.87,7.87,2.19,10.49,5.9,3.94,12.23-.66,17.71-2.18,11.58-9.62,17.92-22.08,24.26-35.2-8.75,20.11-33.23,11.15-44.16,26.88"/><path class="cls-3" d="m126.45,293.19c-26.23,46.99-42.62,97.7-53.12,151.03-.43,9.4,2.85,16.83,3.28,25.78,5.03-22.5,7.88-46.12,16.62-67.09,14.2-19.67,37.81-21.2,60.32-22.73.88,1.53.88,3.93,0,5.24-7.43,29.73-51.33,120.46-53.95,151.49,2.84-.65,5.9-2.62,6.78-5.69,5.68-30.37,46.52-121.76,54.17-151.48,11.8-3.5,26.01-3.93,38.25-3.72-9.83-6.34-21.2-8.96-33-9.83-.66-5.25,2.62-10.06,3.49-15.3-5.25-1.31-5.46,6.34-7.21,10.05.22,11.15-12.45,5.25-18.36,8.3-17.71,5.47-35.84,8.53-47.87,25.14,8.09-33,22.73-66.01,35.85-98.58-2.19,0-3.06-2.83-5.25-2.61"/><path class="cls-3" d="m126.45,293.19c-26.23,46.99-42.62,97.7-53.12,151.03-.43,9.4,2.85,16.83,3.28,25.78,5.03-22.5,7.88-46.12,16.62-67.09,14.2-19.67,37.81-21.2,60.32-22.73.88,1.53.88,3.93,0,5.24-7.43,29.73-51.33,120.46-53.95,151.49,2.84-.65,5.9-2.62,6.78-5.69,5.68-30.37,46.52-121.76,54.17-151.48,11.8-3.5,26.01-3.93,38.25-3.72-9.83-6.34-21.2-8.96-33-9.83-.66-5.25,2.62-10.06,3.49-15.3-5.25-1.31-5.46,6.34-7.21,10.05.22,11.15-12.45,5.25-18.36,8.3-17.71,5.47-35.84,8.53-47.87,25.14,8.09-33,22.73-66.01,35.85-98.58-2.19,0-3.06-2.83-5.25-2.61"/><path class="cls-3" d="m59.13,300.61c1.09.87,2.62.22,3.72.45,1.74-.66,1.31-2.85.65-3.72-1.96-2.4-6.12.66-4.36,3.28"/><path class="cls-3" d="m59.13,300.61c1.09.87,2.62.22,3.72.45,1.74-.66,1.31-2.85.65-3.72-1.96-2.4-6.12.66-4.36,3.28"/><path class="cls-3" d="m189.4,310.02c-.43,2.4.21,3.27,2.62,3.71,1.31.22,1.96-1.52,3.06-2.18.44-1.98-.66-3.5-2.19-4.82-2.4-.65-3.71,1.1-3.49,3.28"/><path class="cls-3" d="m189.4,310.02c-.43,2.4.21,3.27,2.62,3.71,1.31.22,1.96-1.52,3.06-2.18.44-1.98-.66-3.5-2.19-4.82-2.4-.65-3.71,1.1-3.49,3.28"/><path class="cls-3" d="m45.58,328.37c.22,1.54,0,3.72,2.19,4.16,1.75.66,3.5-.87,3.5-2.62.44-1.54-.22-2.84-1.53-3.72-1.75-.22-3.72.22-4.16,2.18"/><path class="cls-3" d="m45.58,328.37c.22,1.54,0,3.72,2.19,4.16,1.75.66,3.5-.87,3.5-2.62.44-1.54-.22-2.84-1.53-3.72-1.75-.22-3.72.22-4.16,2.18"/><path class="cls-3" d="m56.51,330.99c-3.06,53.78,9.05,154.93,11.23,210.46,4.59.43,8.3-1.1,12.68-.45,4.37-52.89-6.86-159.74-10.14-210.66-5.25,1.96-8.53-1.1-13.77.65"/><path class="cls-3" d="m56.51,330.99c-3.06,53.78,9.05,154.93,11.23,210.46,4.59.43,8.3-1.1,12.68-.45,4.37-52.89-6.86-159.74-10.14-210.66-5.25,1.96-8.53-1.1-13.77.65"/><path class="cls-3" d="m52.16,527.1c.88,3.72,1.97,7.66,3.06,11.36,7.65-42.62-9.56-142.14-9.2-198.07,0-1.75-1.31-3.5-3.06-4.16-9.64,60.64,16.41,148.9,9.2,190.87"/><path class="cls-3" d="m52.16,527.1c.88,3.72,1.97,7.66,3.06,11.36,7.65-42.62-9.56-142.14-9.2-198.07,0-1.75-1.31-3.5-3.06-4.16-9.64,60.64,16.41,148.9,9.2,190.87"/><path class="cls-3" d="m169.95,341.49c-2.18,4.81,3.06,6.12,6.34,4.6,1.96-1.31,1.75-4.38.88-6.12-2.18-2.41-5.25-.21-7.21,1.53"/><path class="cls-3" d="m169.95,341.49c-2.18,4.81,3.06,6.12,6.34,4.6,1.96-1.31,1.75-4.38.88-6.12-2.18-2.41-5.25-.21-7.21,1.53"/><path class="cls-3" d="m113.19,507.83h1.53c26.23-39.99,91.08-105.36,121.24-142.73-35.62,31.9-113.59,95.96-122.77,142.73"/><path class="cls-3" d="m113.19,507.83h1.53c26.23-39.99,91.08-105.36,121.24-142.73-35.62,31.9-113.59,95.96-122.77,142.73"/></g></svg>